<svg xmlns="http://www.w3.org/2000/svg" width="70.101" height="70.101" viewBox="0 0 70.101 70.101"><defs><style>.a{fill:#3d4160;}</style></defs><path class="a" d="M30.669,4.381A4.382,4.382,0,0,0,26.288,0H17.525a4.382,4.382,0,0,0-4.381,4.381V17.525H30.669Zm35.05,13.144A4.381,4.381,0,1,0,70.1,21.906,4.382,4.382,0,0,0,65.719,17.525Zm-35.05,4.381H13.144A13.144,13.144,0,0,0,0,35.05V65.719A4.382,4.382,0,0,0,4.381,70.1h35.05a4.382,4.382,0,0,0,4.381-4.381V35.05A13.144,13.144,0,0,0,30.669,21.906Zm-8.763,35.05A10.953,10.953,0,1,1,32.86,46,10.954,10.954,0,0,1,21.906,56.957ZM65.719,13.144a4.381,4.381,0,1,0-4.381-4.381A4.382,4.382,0,0,0,65.719,13.144ZM52.576,17.525a4.381,4.381,0,1,0,4.381,4.381A4.382,4.382,0,0,0,52.576,17.525ZM39.432,4.381a4.381,4.381,0,1,0,4.381,4.381A4.382,4.382,0,0,0,39.432,4.381Zm13.144,0a4.381,4.381,0,1,0,4.381,4.381A4.382,4.382,0,0,0,52.576,4.381ZM65.719,30.669A4.381,4.381,0,1,0,70.1,35.05,4.382,4.382,0,0,0,65.719,30.669Z"/></svg>