<svg xmlns="http://www.w3.org/2000/svg" width="69.347" height="79.253" viewBox="0 0 69.347 79.253"><defs><style>.a{fill:#ff9843;}</style></defs><path class="a" d="M67.489,74.3h-3.1V3.715A3.715,3.715,0,0,0,60.678,0H8.668A3.715,3.715,0,0,0,4.953,3.715V74.3h-3.1A1.858,1.858,0,0,0,0,76.157v3.1H69.347v-3.1A1.858,1.858,0,0,0,67.489,74.3ZM19.813,11.764a1.858,1.858,0,0,1,1.857-1.857h6.192a1.858,1.858,0,0,1,1.857,1.857v6.192a1.858,1.858,0,0,1-1.857,1.857H21.671a1.858,1.858,0,0,1-1.857-1.857Zm0,14.86a1.858,1.858,0,0,1,1.857-1.857h6.192a1.858,1.858,0,0,1,1.857,1.857v6.192a1.858,1.858,0,0,1-1.857,1.857H21.671a1.858,1.858,0,0,1-1.857-1.857Zm8.049,22.909H21.671a1.858,1.858,0,0,1-1.857-1.857V41.484a1.858,1.858,0,0,1,1.857-1.858h6.192a1.858,1.858,0,0,1,1.857,1.858v6.192A1.858,1.858,0,0,1,27.862,49.533ZM39.627,74.3H29.72v-13a1.858,1.858,0,0,1,1.857-1.857h6.192A1.858,1.858,0,0,1,39.627,61.3Zm9.907-26.624a1.858,1.858,0,0,1-1.858,1.857H41.484a1.858,1.858,0,0,1-1.857-1.857V41.484a1.858,1.858,0,0,1,1.857-1.858h6.192a1.858,1.858,0,0,1,1.858,1.858Zm0-14.86a1.858,1.858,0,0,1-1.858,1.857H41.484a1.858,1.858,0,0,1-1.857-1.857V26.624a1.858,1.858,0,0,1,1.857-1.857h6.192a1.858,1.858,0,0,1,1.858,1.857Zm0-14.86a1.858,1.858,0,0,1-1.858,1.857H41.484a1.858,1.858,0,0,1-1.857-1.857V11.764a1.858,1.858,0,0,1,1.857-1.857h6.192a1.858,1.858,0,0,1,1.858,1.857Z"/></svg>